<svg width="220" height="92" viewBox="0 0 220 92" fill="none" xmlns="http://www.w3.org/2000/svg">
<path fill-rule="evenodd" clip-rule="evenodd" d="M63.8191 20.3292C57.6708 18.0236 55.2719 15.2281 50.3601 12.7266C44.8101 9.91962 39.4653 10.7323 35.8014 10.911C35.5846 10.3614 35.2509 9.86682 34.8241 9.46222C34.3972 9.05763 33.8876 8.75296 33.3314 8.5698C32.7751 8.38665 32.1859 8.3295 31.6054 8.4024C31.0248 8.4753 30.4673 8.67646 29.9722 8.99164C27.032 6.76679 23.0319 2.77819 16.667 1.86749C11.2196 1.08937 7.67539 2.01159 1.32197 0.368888C0.598304 0.17868 0 0 0 0C0 0 0.569814 0.305485 1.24219 0.63979C3.36986 1.65669 5.5865 2.47099 7.86343 3.07214C10.4675 3.76957 13.0487 4.15575 15.6642 5.10103C18.0129 5.94792 20.1779 7.24547 22.0404 8.92247C24.0526 10.7764 25.9643 12.739 27.767 14.8016C27.8277 14.9988 27.9019 15.1914 27.9892 15.378C27.9147 15.4187 27.8458 15.4691 27.7841 15.5279C26.9123 16.3233 25.294 16.525 23.9949 16.8709C23.3054 17.2916 24.5647 18.2657 24.992 18.6634C27.7875 20.5279 31.0463 21.5568 34.394 21.6318C34.9638 21.5626 36.5535 21.4704 36.2174 20.7326C35.3398 19.7009 34.1261 18.6 33.8583 17.4472C33.8393 17.3616 33.8106 17.2784 33.7729 17.1994C33.9304 17.1002 34.0826 16.9924 34.2287 16.8766C36.779 16.2387 39.3624 15.7441 41.9668 15.3953C44.4463 15.0867 46.9615 15.2648 49.3744 15.9198C52.0582 16.6518 54.4058 17.8219 56.9301 18.7441C59.1489 19.5607 61.438 20.1666 63.7678 20.554C64.5143 20.6692 65.1468 20.7442 65.1468 20.7442C65.1468 20.7442 64.5257 20.5886 63.8191 20.3292Z" fill="#0B0B0B"/>
<path fill-rule="evenodd" clip-rule="evenodd" d="M218.808 26.704C213.777 24.8192 211.817 22.5252 207.794 20.479C203.235 18.1735 198.876 18.8479 195.873 18.992C195.699 18.5393 195.427 18.1315 195.078 17.7979C194.729 17.4643 194.31 17.2132 193.854 17.0627C193.397 16.9122 192.913 16.866 192.437 16.9276C191.96 16.9891 191.503 17.1567 191.098 17.4184C188.688 15.6028 185.4 12.3347 180.203 11.5911C175.742 10.9571 172.842 11.7122 167.668 10.3634C167.098 10.2078 166.585 10.058 166.585 10.058C166.585 10.058 167.041 10.3058 167.599 10.5825C169.341 11.4139 171.155 12.0797 173.018 12.571C175.149 13.1474 177.263 13.4586 179.406 14.231C181.327 14.9275 183.097 15.9921 184.62 17.3665C186.267 18.8842 187.833 20.4908 189.309 22.1794C189.358 22.3489 189.419 22.5146 189.491 22.6751C189.431 22.7099 189.376 22.7525 189.326 22.8019C188.608 23.4532 187.286 23.6203 186.221 23.897C185.651 24.2428 186.665 25.0498 187.036 25.3668C189.324 26.8944 191.992 27.7375 194.734 27.7992C195.218 27.7415 196.5 27.6666 196.227 27.0614C195.509 26.2141 194.517 25.3322 194.295 24.3754C194.28 24.3057 194.257 24.238 194.227 24.1737C194.356 24.0941 194.482 24.0075 194.603 23.9143C196.689 23.393 198.803 22.9889 200.933 22.7039C202.959 22.452 205.013 22.5968 206.985 23.1304C209.184 23.7068 211.104 24.6867 213.167 25.436C214.979 26.1036 216.849 26.5995 218.751 26.9173C219.367 27.0153 219.891 27.0729 219.891 27.0729C219.891 27.0729 219.378 26.9173 218.808 26.704Z" fill="#0B0B0B"/>
<path fill-rule="evenodd" clip-rule="evenodd" d="M81.3239 90.7695C77.5403 89.3515 76.0645 87.6281 73.0388 86.0892C69.6199 84.36 66.3321 84.8615 64.0756 84.971C63.9438 84.6312 63.7392 84.3251 63.4765 84.0747C63.2139 83.8243 62.8997 83.6359 62.5565 83.523C62.2133 83.41 61.8496 83.3753 61.4916 83.4214C61.1336 83.4674 60.7901 83.5931 60.4858 83.7894C58.6738 82.4234 56.2122 79.968 52.2919 79.4089C48.9414 78.9305 46.7533 79.5011 42.8444 78.4866C42.3999 78.3714 42.0295 78.2618 42.0295 78.2618C42.0295 78.2618 42.3714 78.4463 42.7931 78.6538C44.1023 79.28 45.4662 79.7817 46.8673 80.1524C48.4684 80.5789 50.0582 80.821 51.6708 81.3974C53.1165 81.9193 54.4494 82.7177 55.5968 83.7491C56.8362 84.8904 58.0136 86.0988 59.124 87.3688C59.1607 87.4949 59.2064 87.6182 59.2607 87.7377C59.2151 87.7628 59.173 87.7938 59.1354 87.8299C58.5997 88.3198 57.6026 88.4466 56.7991 88.6541C56.3718 88.9135 57.1353 89.5129 57.4088 89.7608C59.1301 90.9089 61.1368 91.5423 63.1981 91.5879C63.5628 91.5476 64.5258 91.4899 64.3378 91.0115C63.7964 90.3775 63.05 89.6974 62.8847 88.9884C62.8733 88.9367 62.8561 88.8864 62.8334 88.8386C62.9299 88.7783 63.0231 88.7129 63.1127 88.6426C64.6827 88.2502 66.273 87.9462 67.8763 87.7319C69.4022 87.5423 70.9499 87.6519 72.4348 88.0547C74.0873 88.5043 75.5289 89.2074 77.0845 89.7838C78.4473 90.2854 79.8531 90.6578 81.284 90.8963C81.7456 90.9654 82.133 91.0173 82.133 91.0173C82.133 91.0173 81.757 90.9308 81.3239 90.7695Z" fill="#0B0B0B"/>
</svg>
