<svg width="51" height="51" viewBox="0 0 51 51" fill="none" xmlns="http://www.w3.org/2000/svg">
<path d="M29.8493 25.009C29.8493 27.6823 27.6823 29.8494 25.0089 29.8494C22.3355 29.8494 20.1685 27.6823 20.1685 25.009C20.1685 22.3356 22.3355 20.1685 25.0089 20.1685C27.6823 20.1685 29.8493 22.3356 29.8493 25.009Z" fill="white"/>
<path d="M36.5157 16.3035C36.2792 15.6626 35.9019 15.0824 35.4116 14.6063C34.9354 14.116 34.3557 13.7386 33.7143 13.5021C33.1942 13.3001 32.4129 13.0597 30.9738 12.9942C29.417 12.9232 28.9502 12.9079 25.009 12.9079C21.0674 12.9079 20.6007 12.9228 19.0443 12.9938C17.6052 13.0597 16.8234 13.3001 16.3037 13.5021C15.6624 13.7386 15.0823 14.116 14.6065 14.6063C14.1162 15.0824 13.7389 15.6622 13.502 16.3035C13.3 16.8236 13.0595 17.6053 12.994 19.0444C12.923 20.6008 12.9077 21.0676 12.9077 25.0092C12.9077 28.9504 12.923 29.4172 12.994 30.9739C13.0595 32.4131 13.3 33.1944 13.502 33.7145C13.7389 34.3558 14.1158 34.9355 14.6061 35.4117C15.0823 35.902 15.662 36.2794 16.3033 36.5159C16.8234 36.7183 17.6052 36.9587 19.0443 37.0242C20.6007 37.0952 21.067 37.1101 25.0086 37.1101C28.9506 37.1101 29.4174 37.0952 30.9734 37.0242C32.4125 36.9587 33.1942 36.7183 33.7143 36.5159C35.0017 36.0193 36.0191 35.0018 36.5157 33.7145C36.7177 33.1944 36.9581 32.4131 37.024 30.9739C37.095 29.4172 37.1099 28.9504 37.1099 25.0092C37.1099 21.0676 37.095 20.6008 37.024 19.0444C36.9585 17.6053 36.7181 16.8236 36.5157 16.3035ZM25.009 32.5884C20.8227 32.5884 17.429 29.1952 17.429 25.0088C17.429 20.8225 20.8227 17.4292 25.009 17.4292C29.195 17.4292 32.5886 20.8225 32.5886 25.0088C32.5886 29.1952 29.195 32.5884 25.009 32.5884ZM32.8883 18.9009C31.9101 18.9009 31.1169 18.1078 31.1169 17.1295C31.1169 16.1513 31.9101 15.3582 32.8883 15.3582C33.8665 15.3582 34.6596 16.1513 34.6596 17.1295C34.6592 18.1078 33.8665 18.9009 32.8883 18.9009Z" fill="white"/>
<path d="M25.009 0C11.199 0 0 11.199 0 25.009C0 38.8189 11.199 50.0179 25.009 50.0179C38.8189 50.0179 50.0179 38.8189 50.0179 25.009C50.0179 11.199 38.8189 0 25.009 0ZM39.283 30.9296C39.2135 32.4583 38.9704 33.502 38.6155 34.4156C37.8695 36.3446 36.3446 37.8695 34.4156 38.6155C33.5024 38.9704 32.4583 39.2131 30.93 39.283C29.3986 39.3528 28.9094 39.3696 25.0093 39.3696C21.1089 39.3696 20.6201 39.3528 19.0883 39.283C17.56 39.2131 16.5159 38.9704 15.6027 38.6155C14.6442 38.2549 13.7764 37.6898 13.059 36.959C12.3286 36.2419 11.7634 35.3738 11.4028 34.4156C11.0479 33.5024 10.8048 32.4583 10.7354 30.93C10.6648 29.3982 10.6483 28.909 10.6483 25.009C10.6483 21.1089 10.6648 20.6197 10.735 19.0883C10.8044 17.5596 11.0471 16.5159 11.402 15.6024C11.7626 14.6442 12.3282 13.776 13.059 13.059C13.776 12.3282 14.6442 11.763 15.6024 11.4024C16.5159 11.0475 17.5596 10.8048 19.0883 10.735C20.6197 10.6651 21.1089 10.6483 25.009 10.6483C28.909 10.6483 29.3982 10.6651 30.9296 10.7354C32.4583 10.8048 33.502 11.0475 34.4156 11.402C35.3738 11.7626 36.2419 12.3282 36.9594 13.059C37.6898 13.7764 38.2553 14.6442 38.6155 15.6024C38.9708 16.5159 39.2135 17.5596 39.2833 19.0883C39.3532 20.6197 39.3696 21.1089 39.3696 25.009C39.3696 28.909 39.3532 29.3982 39.283 30.9296Z" fill="white"/>
</svg>
