<svg width="51" height="51" viewBox="0 0 51 51" fill="none" xmlns="http://www.w3.org/2000/svg">
<path d="M25.009 0C11.199 0 0 11.199 0 25.009C0 38.8189 11.199 50.0179 25.009 50.0179C38.8189 50.0179 50.0179 38.8189 50.0179 25.009C50.0179 11.199 38.8189 0 25.009 0ZM17.7417 37.8065H11.6508V19.4822H17.7417V37.8065ZM14.6964 16.98H14.6567C12.6129 16.98 11.291 15.573 11.291 13.8145C11.291 12.0164 12.6533 10.6483 14.7369 10.6483C16.8205 10.6483 18.1027 12.0164 18.1423 13.8145C18.1423 15.573 16.8205 16.98 14.6964 16.98ZM39.7039 37.8065H33.6138V28.0034C33.6138 25.5398 32.7319 23.8596 30.5281 23.8596C28.8456 23.8596 27.8435 24.9929 27.4032 26.087C27.2421 26.4785 27.2028 27.0258 27.2028 27.5734V37.8065H21.1124C21.1124 37.8065 21.1921 21.2013 21.1124 19.4822H27.2028V22.0767C28.0122 20.8281 29.4604 19.0521 32.6919 19.0521C36.6991 19.0521 39.7039 21.6711 39.7039 27.2994V37.8065Z" fill="white"/>
</svg>
