<svg width="300" height="300" viewBox="0 0 300 300" fill="none" xmlns="http://www.w3.org/2000/svg">
<path d="M150 300C232.843 300 300 232.843 300 150C300 67.1573 232.843 0 150 0C67.1573 0 0 67.1573 0 150C0 232.843 67.1573 300 150 300Z" fill="#DFE0E1"/>
<path d="M99.2671 14.7353C107.534 9.7875 117.305 7.40177 126.703 5.72139C133.232 4.56098 139.82 3.76279 146.437 3.33047C146.451 3.26344 146.483 3.20151 146.53 3.15128C146.576 3.10104 146.636 3.06439 146.702 3.04522C150.332 1.90422 154.248 1.93015 158.013 1.67602C160.445 1.51006 163.256 1.36484 165.71 0.524648C161.607 0.187535 157.463 0.00601196 153.262 0.00601196C146.991 0.00621046 140.726 0.395938 134.503 1.17294L133.155 1.51006C122.004 4.27958 110.745 7.14245 100.17 11.7065C89.3767 16.3742 80.757 24.1122 71.6031 31.2954C67.1357 34.9152 62.3717 38.1525 57.3613 40.9731C52.8699 43.4003 48.8246 46.3306 45.6401 50.3812C39.987 57.6006 36.9996 66.5989 31.8133 74.1658C31.7651 74.2558 31.6851 74.3245 31.5889 74.3586C31.4927 74.3926 31.3873 74.3896 31.2932 74.35C31.1992 74.3105 31.1233 74.2372 31.0804 74.1447C31.0375 74.0521 31.0307 73.9468 31.0613 73.8495C31.4658 72.0342 31.5799 70.1827 31.8651 68.3519C25.74 76.1315 22.1044 85.6018 19.3764 95.041C16.5913 104.682 14.7916 114.562 12.7171 124.37C12.6968 124.438 12.6594 124.5 12.6084 124.549C12.5574 124.599 12.4945 124.634 12.4257 124.653C12.357 124.671 12.2847 124.671 12.2159 124.653C12.147 124.636 12.0839 124.601 12.0325 124.551C11.5448 124.078 11.0075 123.659 10.4299 123.301C9.57935 128.301 8.61987 133.285 7.80042 138.29C7.00172 143.176 5.79849 148.601 6.24452 153.574C6.57644 157.371 8.65617 160.835 8.89993 164.611C8.99847 166.167 8.6095 167.723 8.28794 169.211C7.88347 171.17 7.74738 173.175 7.88341 175.17C8.32943 183.1 11.825 190.05 13.9359 197.565C15.5644 203.369 16.7521 209.644 18.4221 215.717C21.3901 221.789 24.7655 227.652 28.5251 233.268C28.572 233.233 28.6261 233.208 28.6835 233.197C28.7409 233.185 28.8002 233.186 28.8571 233.201C34.2872 235.042 34.9562 242.095 39.7484 244.419C39.5202 241.763 38.4674 239.388 37.1189 237.085C36.8907 236.691 37.456 236.229 37.762 236.566C43.5656 243.376 48.7053 250.736 54.9756 257.12C60.5457 262.825 68.0141 265.361 75.0675 268.701C80.8452 271.44 85.7618 275.35 90.86 279.152C100.714 286.506 113.312 295.644 126.21 291.438C119.058 286.962 113.395 280.459 105.875 276.522C99.5109 273.193 92.1203 270.688 87.3955 265.019C87.2347 265.423 87.0636 265.818 86.9236 266.232C86.5242 267.399 86.7524 268.411 87.1051 269.573C87.1881 269.847 86.8924 270.195 86.5864 270.091C83.3917 268.795 80.731 266.035 78.5787 263.427C76.6494 261.082 74.3778 258.105 74.2533 254.937C74.2546 254.828 74.2982 254.725 74.3748 254.648C74.4513 254.572 74.5548 254.528 74.663 254.527C75.9025 254.475 77.1058 254.195 78.3246 254.055C76.5301 251.327 74.2896 248.563 73.6983 245.3C73.0708 241.831 75.441 239.875 78.4024 238.854C76.6805 236.167 74.4919 233.584 73.7346 230.441C73.7159 230.363 73.7201 230.282 73.7469 230.206C73.7737 230.13 73.8218 230.064 73.8855 230.015C73.9492 229.966 74.0256 229.937 74.1056 229.931C74.1856 229.924 74.2658 229.941 74.3363 229.98C76.2137 231.017 80.6792 233.46 81.732 230.12C82.484 227.734 81.3742 224.71 80.4873 222.511C78.8536 218.487 76.3382 214.317 72.3447 212.341C68.1956 210.266 63.9117 208.389 59.7626 206.273C55.795 204.255 51.1584 202.171 48.0051 198.924C45.8943 196.751 46.9419 195.138 49.4158 194.515C47.0923 190.729 47.0456 186.518 49.172 182.556C49.2044 182.502 49.2482 182.457 49.3005 182.423C49.3527 182.389 49.4118 182.367 49.4736 182.359C49.5354 182.351 49.5982 182.358 49.6573 182.377C49.7164 182.397 49.7704 182.429 49.8151 182.473C51.3036 183.676 52.7403 185.035 54.4414 185.937C54.8926 186.176 57.242 187.332 57.6621 186.793C58.0822 186.254 57.465 184.48 57.3613 183.914C56.7441 180.59 55.8054 177.338 54.9393 174.06C53.3056 167.992 52.0816 161.872 53.2589 155.592C53.9539 151.858 55.5513 148.481 56.8893 144.955C58.0926 141.775 59.2128 138.534 60.805 135.521C62.2449 132.931 64.0279 130.548 66.1055 128.436C68.2267 126.159 70.3531 123.836 70.9185 120.698C64.0517 118.566 58.5801 124.468 53.6427 128.363C53.5893 128.432 53.5158 128.481 53.4327 128.506C53.3495 128.53 53.2608 128.528 53.179 128.499C53.0972 128.471 53.0264 128.417 52.9765 128.346C52.9267 128.275 52.9003 128.191 52.901 128.104C52.9669 126.44 53.1541 124.783 53.4612 123.146C53.7056 122.15 53.8601 121.135 53.9227 120.112C53.9227 118.929 53.7205 119.199 52.4809 119.448C49.5921 120.029 47.0197 121.175 44.0168 120.864C43.9453 120.862 43.8754 120.842 43.814 120.806C43.7525 120.769 43.7016 120.717 43.6661 120.655C43.6306 120.593 43.6118 120.523 43.6114 120.451C43.6111 120.38 43.6292 120.309 43.6641 120.247C44.7014 118.411 44.6495 116.191 45.0489 114.142C42.1653 115.724 39.4943 117.659 36.5692 119.168C36.5067 119.203 36.4363 119.221 36.3648 119.221C36.2933 119.22 36.223 119.201 36.1609 119.166C36.0988 119.13 36.047 119.08 36.0104 119.018C35.9737 118.957 35.9536 118.887 35.952 118.815C36.4532 109.324 38.9466 100.045 43.27 91.5817C47.2998 83.6413 53.7101 75.6751 63.1493 74.6689C63.5227 74.6274 63.6679 75.1357 63.4397 75.3691C60.4939 78.429 58.4764 82.4588 58.5853 86.7376C63.7716 81.795 68.7506 76.6138 73.5479 71.2822C78.3453 65.9506 83.5058 60.4738 87.5511 54.5303C89.6568 51.4184 90.0561 47.8813 91.7002 44.6191C93.4428 41.1131 97.2444 39.5261 100.813 38.3955C94.2986 35.7038 87.3644 36.9433 80.5495 35.5741C80.4891 35.5573 80.4334 35.5268 80.3866 35.4851C80.3398 35.4433 80.3032 35.3914 80.2797 35.3332C80.2561 35.2751 80.2462 35.2124 80.2508 35.1498C80.2553 35.0873 80.2741 35.0266 80.3058 34.9725C83.6976 30.1025 89.0863 27.4886 94.4386 25.2999C93.2261 24.628 91.884 24.223 90.5022 24.1122C90.4306 24.1106 90.3608 24.0905 90.2993 24.0539C90.2379 24.0173 90.1869 23.9654 90.1515 23.9033C90.116 23.8412 90.0971 23.771 90.0968 23.6994C90.0964 23.6279 90.1146 23.5575 90.1495 23.4951C92.2707 19.709 95.6263 16.9187 99.2671 14.7353Z" fill="#F5F5F6"/>
<path d="M161.296 0.420074C162.577 0.627529 163.842 0.881661 165.071 1.14617C169.796 2.18344 174.407 3.64081 179.111 4.69882C183.457 5.67386 187.829 6.5711 192.155 7.64986C200.416 9.72441 209.892 12.3695 215.732 18.9976C215.792 19.0629 215.829 19.1456 215.838 19.2337C215.848 19.3218 215.829 19.4105 215.784 19.487C215.74 19.5636 215.672 19.6238 215.59 19.6589C215.509 19.694 215.419 19.7022 215.332 19.6822C209.109 18.4531 202.833 15.891 196.407 17.1202C198.259 20.0141 202.678 21.4456 205.66 22.5607C209.747 24.1166 213.958 25.2731 218.107 26.6164C225.71 29.0799 233.008 33.6128 239.179 38.6436C246.196 44.3797 251.372 51.5732 255.688 59.5083C257.394 62.6564 259.318 65.6541 260.692 68.9682C261.849 71.7118 263.286 75.2334 261.963 78.1585C260.926 80.4768 259.085 80.6894 257.01 79.4602C254.604 78.0288 252.15 75.0155 249.142 75.0311C249.832 78.5474 252.171 81.6126 251.938 85.3053C251.936 85.3768 251.916 85.4466 251.879 85.5081C251.843 85.5695 251.791 85.6205 251.729 85.656C251.667 85.6915 251.597 85.7103 251.525 85.7106C251.453 85.711 251.383 85.6928 251.321 85.6579C249.594 84.7348 248.157 83.3448 246.653 82.1208C245.149 80.8969 242.659 78.6719 240.502 79.4291C236.119 80.985 237.649 88.5104 238.199 91.7467C238.863 95.6624 239.542 99.6144 240.326 103.504C241.244 108.084 242.369 112.617 242.919 117.264C243.38 121.262 243.593 125.717 241.648 129.389C241.685 129.45 241.705 129.52 241.705 129.592C241.705 140.701 241.368 151.893 239.325 162.841C238.396 167.836 236.519 172.312 234.268 176.845C232.017 181.377 229.6 185.791 228.661 190.739C235.15 191.512 240.704 185.034 245.595 181.725C245.657 181.69 245.728 181.672 245.799 181.672C245.871 181.673 245.941 181.691 246.003 181.727C246.065 181.762 246.117 181.813 246.154 181.875C246.19 181.936 246.21 182.006 246.212 182.078C246.108 188.851 243.235 195.764 239.081 201.06C237.203 203.445 234.792 205.338 232.473 207.283C231.197 208.312 229.975 209.406 228.812 210.561C228.307 211.075 227.83 211.617 227.386 212.184C226.753 212.993 226.519 212.983 227.183 213.637C230.243 216.676 235.02 213.554 237.509 211.432C240.912 208.538 243.733 204.996 246.575 201.578C248.489 199.291 250.595 196.148 253.395 194.836C253.449 194.805 253.51 194.787 253.572 194.783C253.635 194.779 253.697 194.79 253.755 194.813C253.813 194.836 253.864 194.873 253.906 194.919C253.948 194.965 253.979 195.02 253.997 195.08C254.92 199.836 252.571 204.555 250.014 208.72C251.995 206.645 254.064 204.69 256.673 203.445C256.727 203.416 256.788 203.399 256.85 203.395C256.912 203.392 256.974 203.402 257.031 203.425C257.089 203.448 257.141 203.484 257.183 203.53C257.225 203.576 257.256 203.63 257.275 203.689C262.461 216.359 248.214 224.953 243.1 234.755C247.026 236.343 251.813 233.2 254.936 231.125C258.405 228.807 261.548 226.063 264.873 223.548C265.215 223.288 265.63 223.781 265.433 224.108C258.945 235.067 253.556 246.871 245.403 256.725C238.501 264.974 230.626 272.358 221.95 278.715C216.234 283.041 210.137 286.841 203.736 290.068C260.034 268.456 300 213.896 300 149.99C300 70.9546 238.858 6.1925 161.296 0.420074Z" fill="#CFD0D2"/>
<path d="M59.6433 116.346C59.6433 116.346 57.268 117.59 57.1539 119.058C57.0398 120.526 57.7192 121.548 58.6216 120.982C59.524 120.417 60.997 119.4 61.6764 117.819C62.3558 116.237 60.8881 115.557 59.6433 116.346Z" fill="#F5F5F6"/>
<path d="M49.3588 114.764C49.3588 114.764 49.4729 117.139 47.777 117.025C46.0811 116.911 46.3093 115.329 46.8746 114.536C47.4399 113.742 49.6959 113.747 49.3588 114.764Z" fill="#F5F5F6"/>
<path d="M52.9741 115.215C52.9741 115.215 51.6146 116.574 52.4085 116.911C53.2025 117.248 53.7681 116.346 54.2195 115.874C54.6709 115.402 53.3166 114.878 52.9741 115.215Z" fill="#F5F5F6"/>
<path d="M53.4209 110.355C53.4209 110.355 53.9865 112.949 52.518 112.617C51.0495 112.285 50.5928 112.051 51.3868 111.035C52.1807 110.018 53.2029 110.127 53.4209 110.355Z" fill="#F5F5F6"/>
<path d="M163.256 131.122C163.256 131.122 165.85 133.855 168.655 132.62C170.73 131.692 168.655 128.632 165.798 128.425C165.406 128.591 165.091 128.898 164.916 129.286C164.692 129.65 164.612 130.085 164.69 130.506C164.769 130.927 165.001 131.303 165.341 131.562C165.341 131.562 163.962 131.044 164.097 130.069C164.227 129.528 164.424 129.005 164.683 128.513C164.032 128.65 163.42 128.932 162.893 129.338C162.893 129.338 164.397 125.795 168.629 128.3C172.862 130.805 170.585 133.523 167.815 133.689C165.046 133.855 163.256 131.122 163.256 131.122Z" fill="#CFD0D2"/>
<path d="M107.762 108.82C107.762 108.82 110.356 111.553 113.161 110.319C115.236 109.391 113.161 106.331 110.304 106.123C109.912 106.289 109.597 106.597 109.422 106.984C109.198 107.349 109.118 107.784 109.196 108.205C109.275 108.625 109.507 109.002 109.847 109.261C109.847 109.261 108.468 108.742 108.603 107.767C108.733 107.227 108.93 106.704 109.189 106.212C108.538 106.349 107.926 106.631 107.399 107.036C107.399 107.036 108.903 103.494 113.136 105.999C117.368 108.504 115.091 111.222 112.321 111.388C109.552 111.553 107.762 108.82 107.762 108.82Z" fill="#CFD0D2"/>
<path d="M174.148 191.802C174.148 191.802 176.741 194.535 179.547 193.301C181.621 192.373 179.547 189.313 176.689 189.105C176.297 189.271 175.982 189.578 175.807 189.966C175.584 190.331 175.503 190.766 175.582 191.186C175.66 191.607 175.892 191.984 176.233 192.243C176.233 192.243 174.853 191.724 174.988 190.749C175.118 190.208 175.315 189.686 175.574 189.193C174.923 189.331 174.312 189.612 173.785 190.018C173.785 190.018 175.289 186.476 179.521 188.981C183.753 191.486 181.476 194.203 178.707 194.369C175.937 194.535 174.148 191.802 174.148 191.802Z" fill="#CFD0D2"/>
<path d="M219.788 221.364C219.788 221.364 222.381 224.098 225.187 222.863C227.261 221.935 225.187 218.875 222.329 218.667C221.937 218.833 221.622 219.141 221.447 219.528C221.223 219.893 221.143 220.328 221.222 220.749C221.3 221.169 221.532 221.546 221.873 221.805C221.873 221.805 220.493 221.287 220.628 220.312C220.758 219.771 220.955 219.248 221.214 218.756C220.563 218.893 219.952 219.175 219.425 219.58C219.425 219.58 220.929 216.038 225.161 218.543C229.393 221.048 227.116 223.766 224.346 223.932C221.577 224.098 219.788 221.364 219.788 221.364Z" fill="#CFD0D2"/>
<path d="M216.946 75.6898C216.946 75.6898 214.772 69.6788 209.633 69.6788C205.764 69.6788 206.941 75.8505 211.189 78.1118C211.907 78.1234 212.603 77.8642 213.139 77.3857C215.286 75.5497 214.041 73.5789 214.041 73.5789C214.041 73.5789 215.815 75.3319 214.944 76.7426C214.37 77.4969 213.705 78.1764 212.962 78.7653C214.062 78.9981 215.2 78.9804 216.292 78.7134C216.292 78.7134 211.541 83.1581 206.723 76.3847C201.905 69.6114 207.278 66.9819 211.666 68.6052C216.053 70.2285 216.946 75.6898 216.946 75.6898Z" fill="#CFD0D2"/>
<path d="M81.3324 194.053C81.3324 194.053 79.206 202.735 85.1911 206.713C89.6929 209.705 93.1055 201.615 89.9314 195.702C89.1045 195.133 88.0935 194.896 87.0997 195.038C83.1788 195.51 83.0958 198.767 83.0958 198.767C83.0958 198.767 82.3905 195.35 84.4961 194.39C85.7772 193.804 87.499 193.731 88.3704 193.565C87.2709 192.442 85.9325 191.58 84.4546 191.045C84.4546 191.045 93.4219 189.551 93.7901 201.169C94.1583 212.786 85.8653 211.681 82.0222 206.355C78.1791 201.029 81.3324 194.053 81.3324 194.053Z" fill="#CFD0D2"/>
<path d="M105.019 23.7743C105.019 23.7743 104.189 27.1714 106.528 28.7273C108.291 29.8994 109.64 26.7305 108.385 24.4174C108.061 24.1937 107.664 24.101 107.275 24.1581C106.881 24.1669 106.504 24.3212 106.216 24.5912C105.929 24.8612 105.752 25.2278 105.719 25.6206C105.719 25.6206 105.444 24.2826 106.269 23.9091C106.758 23.7393 107.267 23.6313 107.783 23.5876C107.346 23.1453 106.814 22.8083 106.227 22.6022C106.227 22.6022 109.738 22.0161 109.857 26.5646C109.977 31.113 106.746 30.6773 105.252 28.6028C103.758 26.5283 105.019 23.7743 105.019 23.7743Z" fill="#CFD0D2"/>
<path d="M154.377 37.5389C154.377 37.5389 151.442 49.5142 159.699 54.9754C165.922 59.1245 170.616 47.9427 166.233 39.7898C165.091 39.0141 163.699 38.6957 162.333 38.8977C156.924 39.5512 156.815 44.0426 156.815 44.0426C156.815 44.0426 155.845 39.3334 158.744 38.0005C160.513 37.1914 162.893 37.0929 164.086 36.8647C162.574 35.3179 160.735 34.1304 158.703 33.3898C158.703 33.3898 171.072 31.3153 171.58 47.3515C172.089 63.3877 160.648 61.8733 155.347 54.5294C150.047 47.1855 154.377 37.5389 154.377 37.5389Z" fill="#CFD0D2"/>
<path d="M84.1386 141.24C84.1386 141.24 78.0758 143.263 77.9513 148.403C77.8579 152.266 84.0556 151.25 86.4206 147.075C86.4505 146.358 86.2098 145.657 85.7464 145.109C83.9675 142.915 81.9655 144.108 81.9655 144.108C81.9655 144.108 83.7652 142.381 85.1499 143.289C85.8907 143.88 86.5545 144.561 87.1259 145.317C87.386 144.223 87.3967 143.085 87.1571 141.987C87.1571 141.987 91.4825 146.847 84.5639 151.494C77.6453 156.141 75.1818 150.705 76.9296 146.354C78.6774 142.003 84.1386 141.24 84.1386 141.24Z" fill="#CFD0D2"/>
<path d="M137.039 245.486C137.039 245.486 130.976 247.509 130.852 252.649C130.759 256.512 136.956 255.496 139.321 251.321C139.351 250.604 139.11 249.903 138.647 249.355C136.868 247.161 134.866 248.354 134.866 248.354C134.866 248.354 136.666 246.627 138.051 247.535C138.791 248.126 139.455 248.807 140.027 249.563C140.287 248.469 140.297 247.331 140.058 246.233C140.058 246.233 144.383 251.093 137.465 255.74C130.546 260.387 128.082 254.951 129.83 250.6C131.578 246.248 137.039 245.486 137.039 245.486Z" fill="#CFD0D2"/>
</svg>
