<svg xmlns="http://www.w3.org/2000/svg" viewBox="0 0 861 306.61"><title>Trees</title><g id="Layer_2" data-name="Layer 2"><g id="Layer_1-2" data-name="Layer 1"><path d="M563.95,211.42a21.07,21.07,0,0,1-5.08-2c1.72-.5,1.86-4.08.15-4.9a28.83,28.83,0,0,1-3-1.65,9.22,9.22,0,0,0,4.22.51c.65-.1.6-1.55-.05-1.55-1.55,0-3-1-4.42-2.36,2.48-.23,2.89-6.46.33-6.9a13.13,13.13,0,0,1-5.56-2.48,2.57,2.57,0,0,0-.66-2.69,17.82,17.82,0,0,1-3.42-3.87,12.49,12.49,0,0,0,3.79,1c1.77.17,1.88-4,.25-4.64-3.58-1.34-6.69-4.68-9.5-8.94a28.9,28.9,0,0,0,11.24,6.43c1.21.33,2-2.44.77-3.17-.3-.19-.59-.41-.89-.61a1,1,0,0,0-.28-.22l-.56-.35a35.09,35.09,0,0,1-4.6-4.19,2.58,2.58,0,0,0-.78-2,26.85,26.85,0,0,1-4.13-4c-.37-.45-.7-.9-1.05-1.36-1.25-1.71-2.68-3.85-4.16-5.91a3.37,3.37,0,0,0,.22-.82,29.79,29.79,0,0,0,6.59,4.53c1.4.7,2.26-2.78.89-3.68a44.38,44.38,0,0,1-12.21-13.11,11.53,11.53,0,0,0,3.17,2.52,28.09,28.09,0,0,0,2.41,3.27c1.08,1.25,2.51-1,1.45-2.4-.16-.21-.31-.44-.47-.66a4.31,4.31,0,0,0,1.39-.93c.93-.88.45-3.14-.64-3.09-2.14.13-4.38-2.69-6.48-6.37a6.46,6.46,0,0,0,1.5-1.74,35,35,0,0,0,3.89,3.77c1.15.94,2.41-1.68,1.32-2.93a90.84,90.84,0,0,1-8.72-11.83,32.36,32.36,0,0,0,7.9,6.21c1,.47,1.4-1.75.59-2.47a61.26,61.26,0,0,1-6.81-7.66,2.58,2.58,0,0,0-.14-.5c-.12-.28-.26-.55-.39-.82q1,.9,2.12,1.71c1.66,1.23,2.87-2.42,1.34-3.79a43.89,43.89,0,0,1-6.18-6.92,2.36,2.36,0,0,0,.63-.39c.35.39.68.86,1,1.21,1.7,1.75,3.66-2.55,2-4.43a49,49,0,0,1-6.94-11.34,37.68,37.68,0,0,0-2.12-5c-.21-.54-.42-1.07-.61-1.62a.23.23,0,0,0,0,0c-1.32-5.56-2.13-11.34-3.57-16.84-.26-1-1-.87-1.31-.18-.05-1.07-.08-2.14,0-3.24,0-.81-.39-1.24-.84-1.25a63.42,63.42,0,0,0-1-13.3c-.31-1.56-1.82-1.06-1.8.51a78.31,78.31,0,0,1-.68,10.51,1.6,1.6,0,0,0-.18.88,2.42,2.42,0,0,1,0,.56c-.14,1.08-.36,2.18-.52,3.28-.1.38-.17.76-.24,1.16-2.58,3.74-3.45,10.37-5,15.12a94.6,94.6,0,0,1-8.33,18.33c-.44.8.18,1.88.78,1.4.2-.16.37-.37.56-.55a.75.75,0,0,0,.84.25c.19-.08.37-.21.56-.3-1.09,2-2.15,3.88-3.19,5.62a29,29,0,0,1-5.15-6.46,6.92,6.92,0,0,0,1.78,1.52,17.63,17.63,0,0,0,1.34,1.94c.6.77,1.37-.53.79-1.37-.1-.13-.17-.27-.27-.4a2.46,2.46,0,0,0,.75-.52c.53-.51.25-1.84-.34-1.82-1.18,0-2.42-1.64-3.59-3.82a3.77,3.77,0,0,0,.82-1,21.15,21.15,0,0,0,2.16,2.28c.63.55,1.35-.94.74-1.68a60.29,60.29,0,0,1-4.85-7.06A18,18,0,0,0,498,93.49c.53.31.78-1,.32-1.43a35.18,35.18,0,0,1-3.81-4.61,1.09,1.09,0,0,0-.07-.25c-.07-.17-.15-.32-.22-.48.39.36.78.71,1.18,1,.91.75,1.62-1.38.74-2.2a29.11,29.11,0,0,1-3.42-4.11,2.6,2.6,0,0,0,.35-.24c.19.24.37.49.56.71.94,1.06,2-1.42,1.14-2.57a29.85,29.85,0,0,1-3.88-6.76,23.32,23.32,0,0,0-1.13-2.87c-.14-.38-.28-.75-.4-1.14-.73-3.25-1.18-6.62-2-9.82-.11-.5-.46-.54-.64-.28l-.08-.39c0-.45,0-.9,0-1.36a.71.71,0,0,0-.33-.7l-.12-.69a41,41,0,0,0-.59-7.15c-.06-.36-.24-.53-.41-.56a28.72,28.72,0,0,0-.45-3.15c-.07-.36-.4-.35-.46,0-.77,5.23-.75,10.68-1.62,15.93-.64,2-1.05,4.27-1.59,6.16-.39,1.16-.82,2.28-1.26,3.38a1.38,1.38,0,0,0-.27-.67,81.56,81.56,0,0,1-6.85-9.92,25.64,25.64,0,0,0,6.17,5.25c.76.41,1.1-1.41.46-2a51.16,51.16,0,0,1-5.36-6.49,1.75,1.75,0,0,0-.11-.37c-.09-.23-.2-.45-.29-.68.55.51,1.1,1,1.67,1.45,1.28,1,2.25-1.91,1-3.11a35,35,0,0,1-4.82-5.8,2.35,2.35,0,0,0,.48-.32c.27.35.52.7.81,1,1.33,1.43,2.83-2,1.6-3.64a42.4,42.4,0,0,1-5.44-9.41,32.92,32.92,0,0,0-1.74-4.41c-.15-.41-.3-.83-.44-1.25-1-4.62-1.66-9.37-2.81-13.94-.2-.8-.82-.73-1-.17,0-.88-.07-1.78,0-2.67,0-.68-.33-1-.67-1a55.34,55.34,0,0,0-.81-11c-.24-1.29-1.42-.93-1.41.37a67.77,67.77,0,0,1-.5,8.66,1.06,1.06,0,0,0-.13.71c0,.14,0,.31,0,.46-.11.9-.27,1.81-.41,2.7-.07.32-.12.63-.2,1-2,3-2.66,8.45-3.85,12.36A79.14,79.14,0,0,1,448.33,42c-.35.65.15,1.52.58,1.14.16-.13.29-.29.45-.44a.6.6,0,0,0,.66.23,5.11,5.11,0,0,0,.45-.25c-.92,1.79-1.83,3.45-2.68,5a3.49,3.49,0,0,0,.49,4c-.91,1.8-1.81,3.62-2.62,5.51-1,.81-2,1.53-3,2.42-.8.76-.14,2.45.65,2.22a7,7,0,0,0,.73-.28c-.37,2.06.89,3.55,2.07,3.16-1,1.76-2,3.47-3.07,5.16-.53.82.22,2.16.82,1.62a29.19,29.19,0,0,0,3.78-4.66q-1.51,4.07-3.2,8.16c-.53.67-1.06,1.35-1.57,2.06a1.83,1.83,0,0,0-.08,1.86c-.25.58-.5,1.16-.76,1.75A4,4,0,0,0,443,85a36.34,36.34,0,0,1-2.91,3.84c-.44.53-.12,1.76.43,1.45a15.13,15.13,0,0,0,3.18-2.55,3.33,3.33,0,0,0,.43.58,14.63,14.63,0,0,1-5.74,5.55c-.55.28-.27,1.63.32,1.44a10.5,10.5,0,0,0,3.41-2.07l-.47.87a2.51,2.51,0,0,0,0,2.41c-1.75,3.47-3.59,6.85-5.59,10.1a2.46,2.46,0,0,0-.24.61,30.19,30.19,0,0,1-7.46-8.65,7.73,7.73,0,0,0,2,1.73,19.28,19.28,0,0,0,1.49,2.17c.68.87,1.55-.61.9-1.53l-.3-.45a2.67,2.67,0,0,0,.86-.56c.59-.59.27-2.07-.39-2.07-3,.12-6.34-9.61-8.31-13.44,0,0,0,0,0,0a37.45,37.45,0,0,0,7.6,10.61c.72.64,1.51-1.06.83-1.9a62.77,62.77,0,0,1-5.44-7.88,20,20,0,0,0,4.91,4.16c.61.34.89-1.12.38-1.59A51.71,51.71,0,0,1,428,81.86c-.1-.21-.19-.41-.28-.62a22.31,22.31,0,0,0,1.85,1.64c1,.85,1.8-1.53.83-2.45a28.27,28.27,0,0,1-3.85-4.65,1.1,1.1,0,0,0,.37-.25c.22.28.42.56.65.83,1.07,1.16,2.27-1.64,1.27-2.88A33.67,33.67,0,0,1,424.54,66a26.34,26.34,0,0,0-1.34-3.41c-.13-.36-.26-.72-.38-1.08-.83-3.67-1.34-7.46-2.23-11.08-.17-.67-.68-.58-.84-.13,0-.71,0-1.43,0-2.16,0-.53-.24-.81-.51-.82a43.84,43.84,0,0,0-.66-8.75c-.19-1-1.13-.71-1.12.32a50.37,50.37,0,0,1-.4,6.89.8.8,0,0,0-.1.56c0,.13,0,.23,0,.37-.1.71-.22,1.44-.32,2.16-.05.25-.08.5-.14.74-1.59,2.44-2.13,6.74-3.08,9.85a62,62,0,0,1-5.15,11.9c-.29.53.1,1.24.48.93.13-.11.24-.25.36-.36a.47.47,0,0,0,.52.18c.12-.05.23-.13.35-.19-.73,1.41-1.45,2.74-2.13,3.94a2.79,2.79,0,0,0,.4,3.17c-.72,1.42-1.43,2.87-2.08,4.37-.79.65-1.59,1.24-2.38,2s-.12,1.94.52,1.78a5.21,5.21,0,0,0,.58-.27c-.3,1.65.7,2.84,1.63,2.57-.75,1.38-1.54,2.76-2.42,4.1-.42.64.16,1.73.66,1.27a23.79,23.79,0,0,0,3-3.72q-1.26,3.29-2.62,6.59c-.4.51-.79,1-1.19,1.55a1.44,1.44,0,0,0-.08,1.45c-.2.48-.39.95-.6,1.42a3.13,3.13,0,0,0,.74,3.48,31.7,31.7,0,0,1-2.33,3.07c-.34.4-.1,1.4.33,1.17a12.26,12.26,0,0,0,2.55-2,2.05,2.05,0,0,0,.34.44,11.53,11.53,0,0,1-4.54,4.42c-.48.23-.25,1.32.21,1.18a10.53,10.53,0,0,0,4.48-3.44,120.9,120.9,0,0,1-6.59,12.42,3.1,3.1,0,0,0-.35,1.6c-.28.38-.53.82-.83,1.18-.44.6,0,1.71.51,1.27.25-.22.47-.52.71-.75.39.74.93,1.17,1.56.72a10.7,10.7,0,0,0,1-.76c0,.13,0,.25,0,.38-1.69,2.24-3.62,4.07-5.13,6.71a1.27,1.27,0,0,0-.13.61,28.78,28.78,0,0,1-4-5.16,6.64,6.64,0,0,0,1.78,1.47,16.48,16.48,0,0,0,1.33,1.87c.61.73,1.42-.55.83-1.34l-.27-.39a2.46,2.46,0,0,0,.78-.51c.53-.49.27-1.78-.34-1.76-1.2.06-2.44-1.56-3.61-3.67a3.81,3.81,0,0,0,.85-1,21.83,21.83,0,0,0,2.17,2.19c.64.55,1.38-.92.77-1.64a52.59,52.59,0,0,1-4.85-6.8,17.82,17.82,0,0,0,4.39,3.6c.55.29.82-1,.35-1.41a34.11,34.11,0,0,1-3.81-4.42,1.16,1.16,0,0,0-.08-.27c-.07-.16-.15-.31-.22-.47.39.35.79.68,1.19,1,.92.71,1.63-1.32.76-2.14a26.51,26.51,0,0,1-3.43-4,1,1,0,0,0,.33-.22c.2.24.39.49.6.71.93,1,2-1.41,1.18-2.5a28.07,28.07,0,0,1-3.86-6.49,22.22,22.22,0,0,0-1.19-2.93c-.11-.32-.23-.62-.34-.94-.71-3.17-1.13-6.42-1.93-9.54-.12-.5-.46-.49-.65-.22,0-.14-.05-.27-.08-.41,0-.44,0-.88,0-1.34a.65.65,0,0,0-.34-.69c0-.21-.07-.42-.11-.64a35.82,35.82,0,0,0-.54-6.93c-.06-.34-.22-.47-.4-.5a25.28,25.28,0,0,0-.43-3.11c-.07-.33-.41-.32-.47,0-.8,5.13-.83,10.37-1.8,15.5-.67,1.93-1.11,4.19-1.68,6-.9,2.46-2,4.79-3,7.14-.58,1.12-1.16,2.22-1.78,3.31-.26.45.1,1.05.44.79.11-.09.21-.21.32-.31a.41.41,0,0,0,.46.16c.11,0,.21-.12.32-.17-.67,1.22-1.34,2.37-2,3.41a2.36,2.36,0,0,0,.32,2.75c-.66,1.24-1.31,2.49-1.91,3.8-.71.58-1.45,1.07-2.15,1.68s-.12,1.69.46,1.53a4.56,4.56,0,0,0,.53-.24c-.3,1.43.6,2.48,1.45,2.21-.58,1-1.21,2-1.87,3-.24-.39-.49-.8-.74-1.24l.14.07a.2.2,0,0,0,.22-.09l.16.14c.16.13.32-.16.2-.37-.28-.46-.54-.94-.8-1.42-.53-1.15-1.09-2.29-1.55-3.51-.29-.87-.51-1.93-.84-2.83-.49-2.43-.53-4.93-1-7.36,0-.17-.19-.17-.22,0a12.08,12.08,0,0,0-.18,1.49c-.09,0-.17.08-.2.25a16.89,16.89,0,0,0-.2,3.3l0,.31a.32.32,0,0,0-.17.33c0,.21,0,.43,0,.64l0,.19c-.09-.12-.26-.1-.31.12-.35,1.51-.53,3.07-.86,4.6l0,.06-.13.38a9.09,9.09,0,0,0-.5,1.31,13.94,13.94,0,0,1-1.83,3.25c-.43.53.11,1.66.56,1.16a3,3,0,0,0,.28-.33.42.42,0,0,0,.17.1,12.37,12.37,0,0,1-1.61,2c-.42.39-.07,1.36.37,1a6.8,6.8,0,0,0,.55-.48l-.09.22a.39.39,0,0,0,0,.15,16.77,16.77,0,0,1-1.77,2.15c-.22.2-.08.81.17.65a8.5,8.5,0,0,0,2.06-1.77,25.73,25.73,0,0,1-2.25,3.3c-.29.34.07,1.05.37.78a9.26,9.26,0,0,0,1-1.08,1.69,1.69,0,0,0,.42.46c-.54,1-1.12,1.82-1.69,1.82-.3,0-.41.6-.16.83a1.21,1.21,0,0,0,.37.23l-.12.17c-.27.41.12,1,.4.65a7.19,7.19,0,0,0,.63-.92,3.34,3.34,0,0,0,.85-.72,14.93,14.93,0,0,1-1.84,2.45,25.86,25.86,0,0,1-4.59-5.6A6.34,6.34,0,0,0,357,131.9a14,14,0,0,0,1.23,1.73c.55.65,1.29-.5.74-1.24l-.23-.35a2.27,2.27,0,0,0,.72-.46c.48-.47.24-1.63-.33-1.61-1.1,0-2.25-1.45-3.32-3.39a3.46,3.46,0,0,0,.79-.91,19.63,19.63,0,0,0,2,2c.59.49,1.26-.85.7-1.52a50,50,0,0,1-4.44-6.25,15.74,15.74,0,0,0,4,3.3c.49.27.74-.89.3-1.28a31,31,0,0,1-3.48-4.05,1.2,1.2,0,0,0-.07-.24c-.07-.16-.14-.3-.2-.44.36.32.72.64,1.09.93.84.63,1.48-1.25.69-2a22.09,22.09,0,0,1-3.15-3.66,1.77,1.77,0,0,0,.32-.18c.17.21.34.43.53.62.87.93,1.89-1.29,1.06-2.29a26.06,26.06,0,0,1-3.6-6.12,19.85,19.85,0,0,0-1-2.49c-.09-.25-.18-.48-.27-.73a1.62,1.62,0,0,1,0-.16c-.67-2.91-1.07-5.92-1.8-8.79-.11-.45-.42-.45-.59-.22,0-.12,0-.24-.07-.36,0-.42,0-.82,0-1.25a.59.59,0,0,0-.32-.63c0-.19-.06-.38-.1-.57a33.34,33.34,0,0,0-.48-6.38c-.06-.32-.21-.44-.38-.47a26.21,26.21,0,0,0-.39-2.86c-.08-.32-.38-.3-.44,0-.59,3.68-.73,7.42-1.19,11.13a.93.93,0,0,0-.26-.51,46.61,46.61,0,0,1-4.94-5.76,1.33,1.33,0,0,0-.09-.32c-.09-.22-.19-.42-.28-.63.51.46,1,.9,1.56,1.31,1.18.92,2.11-1.74,1-2.78a32.51,32.51,0,0,1-4.43-5.13,5.17,5.17,0,0,0,.46-.28c.25.28.48.61.73.88,1.23,1.3,2.68-1.81,1.53-3.23a36.69,36.69,0,0,1-5-8.5,27.79,27.79,0,0,0-1.45-3.6c-.17-.45-.34-.91-.5-1.37-.9-4-1.47-8.26-2.47-12.28-.19-.75-.76-.67-1-.16,0-.79,0-1.59,0-2.4,0-.59-.29-.9-.61-.92a47.3,47.3,0,0,0-.68-9.76c-.21-1.14-1.31-.81-1.31.36a60.59,60.59,0,0,1-.54,7.69.93.93,0,0,0-.13.65c0,.14,0,.27,0,.41-.11.79-.27,1.61-.42,2.41-.06.28-.13.58-.18.85-1.89,2.71-2.55,7.55-3.69,11a69.56,69.56,0,0,1-6.13,13.36c-.34.59.12,1.36.54,1,.14-.12.27-.25.4-.38a.55.55,0,0,0,.62.2c.14-.05.27-.14.4-.21-.88,1.59-1.73,3.08-2.54,4.43a3,3,0,0,0,.44,3.51c-.87,1.61-1.7,3.24-2.48,4.93-.92.74-1.87,1.38-2.8,2.19-.74.66-.14,2.18.6,2a5.61,5.61,0,0,0,.68-.3c-.39,1.87.77,3.21,1.88,2.87-.91,1.57-1.86,3.09-2.89,4.61-.48.74.18,1.91.75,1.38a24,24,0,0,0,3.55-4.13c-1,2.45-2,4.89-3.08,7.35-.48.58-1,1.16-1.44,1.79a1.56,1.56,0,0,0-.09,1.64c-.24.52-.46,1-.7,1.58a3.38,3.38,0,0,0,.79,3.88,40.3,40.3,0,0,1-2.73,3.45c-.42.47-.14,1.56.37,1.29a13.83,13.83,0,0,0,3-2.3,2.49,2.49,0,0,0,.39.5,17.83,17.83,0,0,1-2.7,3.17,56.45,56.45,0,0,1-3.86-4.59,5.57,5.57,0,0,1-.29-.59c.56.52,1.12,1,1.71,1.48.95.72,1.7-1.4.79-2.23a24,24,0,0,1-3.55-4.1.86.86,0,0,0,.36-.21c.21.24.38.49.61.73,1,1,2.12-1.47,1.19-2.57a29.59,29.59,0,0,1-4-6.73,22.29,22.29,0,0,0-1.17-2.9c-.14-.38-.28-.76-.41-1.14-.72-3.23-1.15-6.56-2-9.77-.14-.57-.58-.54-.74-.17,0-.61-.05-1.23,0-1.86,0-.48-.23-.7-.49-.71a37.83,37.83,0,0,0-.53-7.82c-.16-.9-1-.65-1,.27a45,45,0,0,1-.43,6.17.79.79,0,0,0-.1.5,3.28,3.28,0,0,1,0,.33c-.09.63-.21,1.27-.34,1.92,0,.21-.08.42-.12.67-1.51,2.15-2,6-3,8.78-.32,1-.66,1.92-1,2.84a1.58,1.58,0,0,0-.31-1.61,25.11,25.11,0,0,1-3.43-4c.12-.06.23-.15.35-.22a6.5,6.5,0,0,0,.58.68c1,1,2.06-1.41,1.17-2.5a28.72,28.72,0,0,1-4-6.71,22.13,22.13,0,0,0-1-2.58c-.13-.36-.27-.73-.4-1.11-.69-3.16-1.13-6.4-1.91-9.51-.12-.49-.47-.52-.66-.26,0-.12,0-.24-.07-.37,0-.44,0-.89,0-1.34a.63.63,0,0,0-.34-.68c0-.21-.07-.41-.11-.61a35.89,35.89,0,0,0-.53-6.94c-.06-.34-.23-.47-.41-.51a26.66,26.66,0,0,0-.42-3.11c-.08-.36-.41-.34-.48,0-.82,5.1-.85,10.33-1.78,15.43-.7,2-1.14,4.34-1.75,6.2-.08.25-.18.48-.27.73s-.26.66-.39,1c-.66-.79-1.31-1.58-2-2.37a1.82,1.82,0,0,0-.12-.41c-.09-.22-.2-.42-.3-.64.56.47,1.11.93,1.68,1.35,1.31,1,2.3-1.94,1-3a35.6,35.6,0,0,1-4.91-5.49,2,2,0,0,0,.49-.32c.28.32.54.69.84,1,1.35,1.37,2.91-2,1.63-3.56a38.82,38.82,0,0,1-5.58-9.06,29.75,29.75,0,0,0-1.67-4c-.17-.45-.35-.89-.51-1.34-1.06-4.42-1.69-9-2.86-13.41-.21-.78-.86-.68-1.06-.13,0-.85-.06-1.71,0-2.6,0-.65-.31-1-.67-1a51.67,51.67,0,0,0-.84-10.59c-.24-1.26-1.44-.85-1.43.4a61.45,61.45,0,0,1-.51,8.41.93.93,0,0,0-.13.68c0,.15,0,.3,0,.45-.14.85-.28,1.75-.43,2.63-.07.31-.14.63-.2.92-2,3-2.73,8.28-3.94,12.06a78.37,78.37,0,0,1-6.6,14.67c-.35.65.15,1.5.62,1.1.15-.13.29-.3.44-.44a.6.6,0,0,0,.67.19c.15-.07.29-.16.44-.24-.93,1.75-1.86,3.38-2.73,4.86a3.25,3.25,0,0,0,.51,3.84c-.94,1.77-1.85,3.56-2.68,5.42-.55.45-1.1.88-1.66,1.31-.43-.54-.86-1.09-1.3-1.65a1.68,1.68,0,0,0-.1-.38c-.08-.19-.17-.38-.26-.56.5.45,1,.88,1.52,1.27,1.19.92,2.11-1.75,1-2.78a31.22,31.22,0,0,1-4.44-5.14,2.13,2.13,0,0,0,.46-.28c.24.29.47.64.74.91,1.23,1.29,2.66-1.81,1.5-3.24a36.37,36.37,0,0,1-5-8.45A27.43,27.43,0,0,0,235,53.52c-.15-.42-.31-.85-.46-1.28-.92-4.08-1.47-8.31-2.48-12.36-.19-.71-.77-.65-1-.15,0-.78,0-1.58,0-2.39,0-.59-.28-.91-.6-.93a47.28,47.28,0,0,0-.68-9.78c-.21-1.14-1.31-.82-1.3.35A61.15,61.15,0,0,1,228,34.7a.9.9,0,0,0-.13.64c0,.13,0,.26,0,.4-.11.8-.27,1.62-.41,2.41-.06.31-.11.56-.17.84-1.89,2.71-2.56,7.56-3.7,11a70.58,70.58,0,0,1-6.14,13.37c-.33.58.12,1.35.55,1,.14-.12.27-.26.41-.39a.56.56,0,0,0,.62.19c.14-.05.26-.14.4-.21-.87,1.59-1.73,3.08-2.55,4.42a3,3,0,0,0,.44,3.54c-.86,1.6-1.7,3.22-2.47,4.92-.62.5-1.26,1-1.89,1.47l-.18-.54c-.73-3.24-1.18-6.63-2-9.85-.15-.55-.58-.53-.75-.16,0-.62-.05-1.24,0-1.88,0-.46-.22-.68-.48-.69a37.56,37.56,0,0,0-.54-7.82c-.17-.91-1.05-.62-1,.26a47.55,47.55,0,0,1-.43,6.17.69.69,0,0,0-.11.51,2.22,2.22,0,0,1,0,.33c-.1.64-.21,1.27-.32,1.9-.06.23-.08.44-.14.68-1.51,2.16-2,6-2.94,8.77a56.28,56.28,0,0,1-4.89,10.64c-.27.45.09,1.08.43.81a4.39,4.39,0,0,0,.35-.32.44.44,0,0,0,.47.16c.12,0,.22-.12.34-.18-.7,1.27-1.38,2.45-2,3.53a2.38,2.38,0,0,0,.34,2.82c-.69,1.27-1.36,2.57-2,3.92-.74.58-1.5,1.1-2.23,1.75s-.12,1.76.47,1.58a5.21,5.21,0,0,0,.56-.25c-.32,1.48.61,2.55,1.49,2.28-.72,1.27-1.48,2.48-2.3,3.68-.4.59.15,1.52.6,1.12a21.7,21.7,0,0,0,2.82-3.31c-.78,1.94-1.61,3.9-2.46,5.87-.37.45-.75.9-1.12,1.38a1.28,1.28,0,0,0-.08,1.31c-.2.42-.37.83-.57,1.26a2.76,2.76,0,0,0,.64,3.12,29.93,29.93,0,0,1-2.18,2.74c-.32.36-.1,1.24.3,1a11.55,11.55,0,0,0,2.39-1.82,2.57,2.57,0,0,0,.31.4,10.86,10.86,0,0,1-4.28,4c-.43.18-.21,1.15.21,1a9.89,9.89,0,0,0,4.21-3.07,112,112,0,0,1-6.24,11.1,2.62,2.62,0,0,0-.35,1.44c-.25.33-.5.73-.78,1.07-.42.51,0,1.49.47,1.11.24-.2.43-.47.67-.65.34.63.87,1,1.44.62.32-.22.61-.48.91-.73,0,.13,0,.26,0,.38-1.6,2-3.4,3.65-4.83,6-.35.58,0,1.77.58,1.4a32.33,32.33,0,0,0,6.19-5.72,63.55,63.55,0,0,0-3.47,6.39,18.92,18.92,0,0,1-1.7,1.51.84.84,0,0,0,.08,1.15,81,81,0,0,1-5.51,6.5c-.42.42-.22,1.48.29,1.45a5,5,0,0,0,2.52-1c.12.16.25.3.42.17a18,18,0,0,0,4.62-4.07c-.26.42-.49.87-.75,1.28a80.28,80.28,0,0,1-5.45,7c-.37.47-.15,1.63.37,1.29a19.64,19.64,0,0,0,4.27-3.86,2.8,2.8,0,0,0,.89,1.44c.27-.25.54-.47.81-.7v1.58l-.59.81c-.35.5.07,1.6.53,1.29l.05,0V306.61h342V221.46a3.38,3.38,0,0,0,.33.18c1,.54,1.66-.6,1.76-1.84.81.73,1.58,1.43,2.31,2,1.18,1,2.39-1.57,1.34-3-1.59-2.13-3.08-4.29-4.51-6.51a3.17,3.17,0,0,0,.22-.46c3.29,3.61,6.46,6.26,9.21,7.48,1.88.87,2.81-3.44,1.18-4.82l-.12-.14a20.47,20.47,0,0,0,2.9.87c2.81,2.05,5.76,3.72,8.29,5.43,2,1.31,3.67-3.2,1.63-4.71-.59-.45-1.19-.87-1.81-1.3a1.92,1.92,0,0,0,.17-.73,12.47,12.47,0,0,0,7.71.67C564.87,214.34,565.26,211.73,563.95,211.42Z"/><path d="M0,306.61V132.22a42.68,42.68,0,0,0,5.32-3.69,14.26,14.26,0,0,1-3.24,1.36A20.8,20.8,0,0,1,0,131.39v-3.87a14.51,14.51,0,0,0,4.42-3,6.08,6.08,0,0,1-1.56-.92c-.92.56-1.88,1.06-2.86,1.54v-2.58a71.83,71.83,0,0,0,6.34-4.76A39.46,39.46,0,0,1,0,120.61v-1.95c1.61-.92,3.11-1.93,4.64-2.94a1,1,0,0,1,.13-.25c.13-.15.27-.29.39-.45-.71.32-1.42.64-2.16.93-1.66.64-2.92-1.27-1.36-2a37.43,37.43,0,0,0,6.21-3.71,6.08,6.08,0,0,1-.64-.18c-.34.21-.68.44-1,.63-1.72.94-3.72-1.3-2.08-2.32a30.41,30.41,0,0,0,7.09-6.18,16.91,16.91,0,0,1,2-2.52c.18-.25.36-.49.54-.74l.08-.16c1.31-2.95,2.11-6,3.53-8.89a.82.82,0,0,1,1.18-.22c0-.12.09-.24.13-.36a10.47,10.47,0,0,0,0-1.26c0-.36.27-.58.63-.64l.19-.57a18.14,18.14,0,0,1,.95-6.46.81.81,0,0,1,.76-.47,14.11,14.11,0,0,1,.75-2.9.5.5,0,0,1,.86,0c1.16,3.73,1.45,7.51,2.34,11.25a1,1,0,0,1,.51-.51,77.41,77.41,0,0,0,9.73-5.82,1.17,1.17,0,0,1,.18-.33c.18-.21.38-.42.56-.63-1,.47-2,.91-3.07,1.33-2.34.93-4.15-1.77-1.9-2.81a55,55,0,0,0,8.73-5.2c-.28-.06-.58-.18-.91-.28-.48.29-.95.61-1.44.89-2.42,1.31-5.28-1.83-3-3.27A43,43,0,0,0,44.44,63a24.6,24.6,0,0,1,2.87-3.64c.33-.46.66-.91,1-1.38,1.77-4.09,2.88-8.36,4.87-12.43A1.18,1.18,0,0,1,55,45.42,14.08,14.08,0,0,0,55,43c0-.59.57-.91,1.2-.93a25.29,25.29,0,0,1,1.35-9.88c.41-1.15,2.58-.81,2.57.36a32.39,32.39,0,0,0,1.06,7.79.63.63,0,0,1,.27.66c0,.14,0,.27,0,.41.22.8.53,1.63.82,2.43.1.29.25.59.36.86,3.73,2.74,5,7.63,7.27,11.16,3.17,5,7.42,9.31,12.09,13.52.68.59-.24,1.38-1.07,1-.28-.12-.52-.26-.79-.39a1.82,1.82,0,0,1-1.22.21c-.28-.06-.53-.14-.8-.21,1.72,1.6,3.4,3.11,5,4.48s.59,2.86-.86,3.56c1.7,1.62,3.36,3.27,4.89,5,1.81.74,3.69,1.4,5.51,2.22,1.46.66.28,2.21-1.18,2-.46-.08-.9-.21-1.35-.31.77,1.89-1.52,3.24-3.71,2.9,1.8,1.59,3.66,3.12,5.71,4.67.94.74-.36,1.93-1.48,1.39a40.25,40.25,0,0,1-7-4.17c1.93,2.48,4,4.95,6.08,7.43.95.59,1.9,1.18,2.83,1.81a1,1,0,0,1,.18,1.65c.47.53.9,1.05,1.39,1.59,1.37,1.51.18,3.2-1.57,3.93a61.62,61.62,0,0,0,5.39,3.49c.82.47.27,1.58-.73,1.3a33.52,33.52,0,0,1-5.89-2.32,3.9,3.9,0,0,1-.76.5,29.66,29.66,0,0,0,5.32,3.21c2.68-1.38,5.11-3.05,7.61-4.65a7.38,7.38,0,0,0,.56-.6c-1.1.52-2.21,1-3.36,1.49-1.87.73-3.35-1.42-1.55-2.25a41.16,41.16,0,0,0,7-4.14,2.49,2.49,0,0,1-.71-.22c-.41.24-.75.51-1.2.75-1.93,1-4.18-1.5-2.34-2.6a34.42,34.42,0,0,0,7.81-6.8A19.94,19.94,0,0,1,112,92.34c.27-.38.55-.76.8-1.15,1.43-3.27,2.28-6.64,3.89-9.88a1,1,0,0,1,1.47-.17,11.69,11.69,0,0,0,.05-1.88c0-.48.46-.71,1-.72a20.15,20.15,0,0,1,1.06-7.9c.32-.91,2.05-.66,2.05.28a23.87,23.87,0,0,0,.86,6.23.55.55,0,0,1,.19.51,1.7,1.7,0,0,0,0,.33c.18.64.41,1.29.66,1.94.07.21.16.42.25.67,3,2.18,4,6.07,5.81,8.88a33.68,33.68,0,0,0,2,2.88,1.08,1.08,0,0,1,.61-1.63,43.06,43.06,0,0,0,6.76-4c-.24-.06-.46-.15-.7-.23a9.94,9.94,0,0,1-1.13.7c-1.88,1-4.07-1.42-2.3-2.53a33.64,33.64,0,0,0,7.79-6.78,18.92,18.92,0,0,1,2-2.61c.26-.37.54-.74.79-1.12,1.36-3.19,2.23-6.48,3.77-9.61a.89.89,0,0,1,1.3-.26c0-.13.09-.25.14-.38a10,10,0,0,0,0-1.35c0-.38.29-.61.68-.68.07-.21.14-.42.22-.62a19.17,19.17,0,0,1,1-7,.85.85,0,0,1,.8-.51,15.24,15.24,0,0,1,.82-3.15.53.53,0,0,1,.93,0c1.62,5.16,1.67,10.45,3.52,15.61,1.37,2,2.25,4.38,3.45,6.27.16.25.35.49.53.74s.51.67.78,1l3.87-2.4a1.3,1.3,0,0,1,.23-.42c.18-.21.39-.42.59-.64-1.1.48-2.2.95-3.32,1.37-2.59,1-4.55-2-2.07-3.06a61.38,61.38,0,0,0,9.68-5.55,5.33,5.33,0,0,1-1-.32c-.55.32-1.06.7-1.65,1-2.65,1.39-5.72-2.06-3.21-3.6a47.84,47.84,0,0,0,11-9.16,26.21,26.21,0,0,1,3.28-4c.35-.45.69-.9,1-1.36,2.09-4.46,3.34-9.12,5.63-13.56a1.33,1.33,0,0,1,2.08-.13,16.23,16.23,0,0,0,.07-2.63c0-.66.61-1,1.31-1A27.76,27.76,0,0,1,193.14,18c.46-1.27,2.83-.86,2.82.4a32.63,32.63,0,0,0,1,8.51.6.6,0,0,1,.25.68,3,3,0,0,0,0,.45c.27.86.54,1.77.84,2.66.14.31.27.63.39.92,4,3,5.39,8.38,7.77,12.2,3.4,5.51,8,10.21,13,14.84.69.65-.29,1.52-1.23,1.11-.31-.13-.57-.29-.87-.43a2,2,0,0,1-1.31.19c-.3-.07-.58-.16-.86-.24,1.85,1.76,3.67,3.42,5.39,4.92s.59,3.13-1,3.88c1.84,1.79,3.64,3.6,5.29,5.48,1.08.46,2.17.88,3.27,1.33l2.55-1.67a1.18,1.18,0,0,1,.2-.39c.16-.19.34-.38.51-.56-1,.45-2,.88-3,1.29-2.35.92-4.17-1.77-1.93-2.83a52.32,52.32,0,0,0,8.76-5.2,6.63,6.63,0,0,1-.91-.28c-.48.29-.93.64-1.46.91-2.43,1.3-5.25-1.84-3-3.27a43,43,0,0,0,9.85-8.55,24.11,24.11,0,0,1,2.94-3.72c.3-.43.61-.86.91-1.29,1.81-4.13,2.9-8.4,4.91-12.51a1.22,1.22,0,0,1,1.91-.15,15.91,15.91,0,0,0,0-2.42c0-.6.55-.92,1.19-.94a25.17,25.17,0,0,1,1.33-9.89c.41-1.16,2.59-.83,2.57.35a32.41,32.41,0,0,0,1.05,7.81.58.58,0,0,1,.26.64,3.13,3.13,0,0,0,0,.4c.22.81.54,1.64.81,2.43.12.31.22.57.34.85,3.73,2.74,5,7.64,7.29,11.16,3.18,5,7.44,9.32,12.1,13.52.66.58-.23,1.37-1.08,1-.28-.12-.53-.27-.8-.4a1.82,1.82,0,0,1-1.22.2c-.27-.05-.52-.14-.79-.21,1.72,1.6,3.42,3.12,5,4.47s.58,2.88-.86,3.57c1.7,1.63,3.35,3.27,4.88,5,1.23.51,2.48,1,3.73,1.49l.37-.55c1.44-3.29,2.32-6.71,3.92-10a1,1,0,0,1,1.49-.15,10.91,10.91,0,0,0,0-1.91c0-.47.43-.7.94-.7a20.07,20.07,0,0,1,1.07-7.91c.33-.92,2.07-.63,2,.27a24.86,24.86,0,0,0,.84,6.23.47.47,0,0,1,.22.52,1,1,0,0,0,0,.33c.19.65.42,1.29.63,1.92.11.23.16.45.29.7,3,2.18,4,6.07,5.78,8.87a53.18,53.18,0,0,0,9.64,10.76c.54.46-.17,1.1-.85.83-.24-.1-.46-.23-.68-.33a1.36,1.36,0,0,1-.93.16c-.24,0-.44-.12-.67-.18,1.37,1.28,2.72,2.48,4,3.57s.48,2.3-.68,2.86c1.36,1.29,2.68,2.6,3.89,4,1.45.59,3,1.11,4.4,1.77,1.18.53.23,1.78-.92,1.6-.38-.06-.74-.17-1.11-.25.62,1.49-1.21,2.58-2.94,2.3,1.42,1.28,2.9,2.5,4.53,3.71.79.61-.28,1.55-1.17,1.15a36.9,36.9,0,0,1-5.55-3.36c1.53,2,3.16,3.95,4.84,5.92.74.46,1.49.91,2.22,1.41a.79.79,0,0,1,.16,1.32c.38.42.73.85,1.12,1.27,1.07,1.22.12,2.55-1.27,3.16a51,51,0,0,0,4.3,2.77c.64.37.19,1.25-.59,1a27.85,27.85,0,0,1-4.7-1.85,3.08,3.08,0,0,1-.61.41,22.35,22.35,0,0,0,8.45,4c.84.19.42,1.16-.4,1a24.07,24.07,0,0,1-8.3-3.11,125.75,125.75,0,0,0,12.29,11.22,1.76,1.76,0,0,1,.7,1.46c.5.33,1,.75,1.54,1.08.83.52.07,1.51-.92,1.12-.48-.21-.85-.47-1.31-.66a2.73,2.73,0,0,1-2.84.63c-.63-.23-1.19-.49-1.79-.74a1.94,1.94,0,0,1,0,.39c3.15,2,6.7,3.69,9.5,6.06.69.6-.09,1.8-1.14,1.42a66.48,66.48,0,0,1-12.19-5.79,70.2,70.2,0,0,1,6.84,6.47c1.08.55,2.18,1.07,3.34,1.53.66.27.39,1-.16,1.17,3.54,2.27,7.05,4.6,10.86,6.57.83.42.43,1.49-.58,1.47a15.92,15.92,0,0,1-5-1,.82.82,0,0,1-.82.18,38.38,38.38,0,0,1-9.12-4.11c.51.42,1,.87,1.49,1.3a123.78,123.78,0,0,0,10.75,7.13.75.75,0,0,1-.73,1.3,41.18,41.18,0,0,1-8.4-3.91,3.42,3.42,0,0,1-1.74,1.46l-1.59-.72v1.6l1.16.82c.7.51-.14,1.62-1.05,1.3l-.1,0V306.61Z"/><path d="M861,306.61V132.22a42.68,42.68,0,0,1-5.32-3.69,14.26,14.26,0,0,0,3.24,1.36,20.8,20.8,0,0,0,2.08,1.5v-3.87a14.51,14.51,0,0,1-4.42-3,6.08,6.08,0,0,0,1.56-.92c.92.56,1.88,1.06,2.86,1.54v-2.58a71.83,71.83,0,0,1-6.34-4.76,39.46,39.46,0,0,0,6.34,2.83v-1.95c-1.61-.92-3.11-1.93-4.64-2.94a1,1,0,0,0-.13-.25c-.13-.15-.27-.29-.39-.45.71.32,1.42.64,2.16.93,1.66.64,2.92-1.27,1.36-2a37.43,37.43,0,0,1-6.21-3.71,6.08,6.08,0,0,0,.64-.18c.34.21.68.44,1,.63,1.72.94,3.72-1.3,2.08-2.32a30.41,30.41,0,0,1-7.09-6.18,16.91,16.91,0,0,0-2-2.52c-.18-.25-.36-.49-.54-.74l-.08-.16c-1.31-2.95-2.11-6-3.53-8.89a.82.82,0,0,0-1.18-.22c0-.12-.09-.24-.13-.36a10.47,10.47,0,0,1,0-1.26c0-.36-.27-.58-.63-.64l-.19-.57a18.14,18.14,0,0,0-.95-6.46.81.81,0,0,0-.76-.47,14.11,14.11,0,0,0-.75-2.9.5.5,0,0,0-.86,0c-1.16,3.73-1.45,7.51-2.34,11.25a1,1,0,0,0-.51-.51,77.41,77.41,0,0,1-9.73-5.82,1.17,1.17,0,0,0-.18-.33c-.18-.21-.38-.42-.56-.63,1,.47,2,.91,3.07,1.33,2.34.93,4.15-1.77,1.9-2.81a55,55,0,0,1-8.73-5.2c.28-.06.58-.18.91-.28.48.29.95.61,1.44.89,2.42,1.31,5.28-1.83,3-3.27A43,43,0,0,1,816.56,63a24.6,24.6,0,0,0-2.87-3.64c-.33-.46-.66-.91-1-1.38-1.77-4.09-2.88-8.36-4.87-12.43a1.18,1.18,0,0,0-1.89-.16A14.08,14.08,0,0,1,806,43c0-.59-.57-.91-1.2-.93a25.29,25.29,0,0,0-1.35-9.88c-.41-1.15-2.58-.81-2.57.36a32.39,32.39,0,0,1-1.06,7.79.63.63,0,0,0-.27.66c0,.14,0,.27,0,.41-.22.8-.53,1.63-.82,2.43-.1.29-.25.59-.36.86-3.73,2.74-5,7.63-7.27,11.16-3.17,5-7.42,9.31-12.09,13.52-.68.59.24,1.38,1.07,1,.28-.12.52-.26.79-.39a1.82,1.82,0,0,0,1.22.21c.28-.06.53-.14.8-.21-1.72,1.6-3.4,3.11-5,4.48s-.59,2.86.86,3.56c-1.7,1.62-3.36,3.27-4.89,5-1.81.74-3.69,1.4-5.51,2.22-1.46.66-.28,2.21,1.18,2,.46-.08.9-.21,1.35-.31-.77,1.89,1.52,3.24,3.71,2.9-1.8,1.59-3.66,3.12-5.71,4.67-.94.74.36,1.93,1.48,1.39a40.25,40.25,0,0,0,7-4.17c-1.93,2.48-4,4.95-6.08,7.43-.95.59-1.9,1.18-2.83,1.81a1,1,0,0,0-.18,1.65c-.47.53-.9,1.05-1.39,1.59-1.37,1.51-.18,3.2,1.57,3.93a61.62,61.62,0,0,1-5.39,3.49c-.82.47-.27,1.58.73,1.3a33.52,33.52,0,0,0,5.89-2.32,3.9,3.9,0,0,0,.76.5,29.66,29.66,0,0,1-5.32,3.21c-2.68-1.38-5.11-3.05-7.61-4.65a7.38,7.38,0,0,1-.56-.6c1.1.52,2.21,1,3.36,1.49,1.87.73,3.35-1.42,1.55-2.25a41.16,41.16,0,0,1-7-4.14,2.49,2.49,0,0,0,.71-.22c.41.24.75.51,1.2.75,1.93,1,4.18-1.5,2.34-2.6a34.42,34.42,0,0,1-7.81-6.8A19.94,19.94,0,0,0,749,92.34c-.27-.38-.55-.76-.8-1.15-1.43-3.27-2.28-6.64-3.89-9.88a1,1,0,0,0-1.47-.17,11.69,11.69,0,0,1-.05-1.88c0-.48-.46-.71-1-.72a20.15,20.15,0,0,0-1.06-7.9c-.32-.91-2.05-.66-2.05.28a23.87,23.87,0,0,1-.86,6.23.55.55,0,0,0-.19.51,1.7,1.7,0,0,1,0,.33c-.18.64-.41,1.29-.66,1.94-.07.21-.16.42-.25.67-3,2.18-4,6.07-5.81,8.88a33.68,33.68,0,0,1-2,2.88,1.08,1.08,0,0,0-.61-1.63,43.06,43.06,0,0,1-6.76-4c.24-.06.46-.15.7-.23a9.94,9.94,0,0,0,1.13.7c1.88,1,4.07-1.42,2.3-2.53a33.64,33.64,0,0,1-7.79-6.78,18.92,18.92,0,0,0-2-2.61c-.26-.37-.54-.74-.79-1.12-1.36-3.19-2.23-6.48-3.77-9.61a.89.89,0,0,0-1.3-.26c0-.13-.09-.25-.14-.38a10,10,0,0,1,0-1.35c0-.38-.29-.61-.68-.68-.07-.21-.14-.42-.22-.62a19.17,19.17,0,0,0-1-7,.85.85,0,0,0-.8-.51,15.24,15.24,0,0,0-.82-3.15.53.53,0,0,0-.93,0c-1.62,5.16-1.67,10.45-3.52,15.61-1.37,2-2.25,4.38-3.45,6.27-.16.25-.35.49-.53.74s-.51.67-.78,1l-3.87-2.4a1.3,1.3,0,0,0-.23-.42c-.18-.21-.39-.42-.59-.64,1.1.48,2.2.95,3.32,1.37,2.59,1,4.55-2,2.07-3.06a61.38,61.38,0,0,1-9.68-5.55,5.33,5.33,0,0,0,1-.32c.55.32,1.06.7,1.65,1,2.65,1.39,5.72-2.06,3.21-3.6a47.84,47.84,0,0,1-11-9.16,26.21,26.21,0,0,0-3.28-4c-.35-.45-.69-.9-1-1.36-2.09-4.46-3.34-9.12-5.63-13.56a1.33,1.33,0,0,0-2.08-.13,16.23,16.23,0,0,1-.07-2.63c0-.66-.61-1-1.31-1A27.76,27.76,0,0,0,667.86,18c-.46-1.27-2.83-.86-2.82.4a32.63,32.63,0,0,1-1,8.51.6.6,0,0,0-.25.68,3,3,0,0,1,0,.45c-.27.86-.54,1.77-.84,2.66-.14.31-.27.63-.39.92-4,3-5.39,8.38-7.77,12.2-3.4,5.51-8,10.21-13,14.84-.69.65.29,1.52,1.23,1.11.31-.13.57-.29.87-.43a2,2,0,0,0,1.31.19c.3-.07.58-.16.86-.24-1.85,1.76-3.67,3.42-5.39,4.92s-.59,3.13,1,3.88c-1.84,1.79-3.64,3.6-5.29,5.48-1.08.46-2.17.88-3.27,1.33l-2.55-1.67a1.18,1.18,0,0,0-.2-.39c-.16-.19-.34-.38-.51-.56,1,.45,2,.88,3,1.29,2.35.92,4.17-1.77,1.93-2.83a52.32,52.32,0,0,1-8.76-5.2,6.63,6.63,0,0,0,.91-.28c.48.29.93.64,1.46.91,2.43,1.3,5.25-1.84,3-3.27a43,43,0,0,1-9.85-8.55,24.11,24.11,0,0,0-2.94-3.72c-.3-.43-.61-.86-.91-1.29-1.81-4.13-2.9-8.4-4.91-12.51a1.22,1.22,0,0,0-1.91-.15,15.91,15.91,0,0,1,0-2.42c0-.6-.55-.92-1.19-.94a25.17,25.17,0,0,0-1.33-9.89c-.41-1.16-2.59-.83-2.57.35a32.41,32.41,0,0,1-1.05,7.81.58.58,0,0,0-.26.64,3.13,3.13,0,0,1,0,.4c-.22.81-.54,1.64-.81,2.43-.12.31-.22.57-.34.85-3.73,2.74-5,7.64-7.29,11.16-3.18,5-7.44,9.32-12.1,13.52-.66.58.23,1.37,1.08,1,.28-.12.53-.27.8-.4a1.82,1.82,0,0,0,1.22.2c.27-.05.52-.14.79-.21-1.72,1.6-3.42,3.12-5,4.47s-.58,2.88.86,3.57c-1.7,1.63-3.35,3.27-4.88,5-1.23.51-2.48,1-3.73,1.49l-.37-.55c-1.44-3.29-2.32-6.71-3.92-10a1,1,0,0,0-1.49-.15,10.91,10.91,0,0,1,0-1.91c0-.47-.43-.7-.94-.7a20.07,20.07,0,0,0-1.07-7.91c-.33-.92-2.07-.63-2,.27a24.86,24.86,0,0,1-.84,6.23.47.47,0,0,0-.22.52,1,1,0,0,1,0,.33c-.19.65-.42,1.29-.63,1.92-.11.23-.16.45-.29.7-3,2.18-4,6.07-5.78,8.87a53.18,53.18,0,0,1-9.64,10.76c-.54.46.17,1.1.85.83.24-.1.46-.23.68-.33a1.36,1.36,0,0,0,.93.16c.24,0,.44-.12.67-.18-1.37,1.28-2.72,2.48-4,3.57s-.48,2.3.68,2.86c-1.36,1.29-2.68,2.6-3.89,4-1.45.59-3,1.11-4.4,1.77-1.18.53-.23,1.78.92,1.6.38-.06.74-.17,1.11-.25-.62,1.49,1.21,2.58,2.94,2.3-1.42,1.28-2.9,2.5-4.53,3.71-.79.61.28,1.55,1.17,1.15a36.9,36.9,0,0,0,5.55-3.36c-1.53,2-3.16,3.95-4.84,5.92-.74.46-1.49.91-2.22,1.41a.79.79,0,0,0-.16,1.32c-.38.42-.73.85-1.12,1.27-1.07,1.22-.12,2.55,1.27,3.16a51,51,0,0,1-4.3,2.77c-.64.37-.19,1.25.59,1a27.85,27.85,0,0,0,4.7-1.85,3.08,3.08,0,0,0,.61.41,22.35,22.35,0,0,1-8.45,4c-.84.19-.42,1.16.4,1a24.07,24.07,0,0,0,8.3-3.11,125.75,125.75,0,0,1-12.29,11.22,1.76,1.76,0,0,0-.7,1.46c-.5.33-1,.75-1.54,1.08-.83.52-.07,1.51.92,1.12.48-.21.85-.47,1.31-.66a2.73,2.73,0,0,0,2.84.63c.63-.23,1.19-.49,1.79-.74a1.94,1.94,0,0,0,0,.39c-3.15,2-6.7,3.69-9.5,6.06-.69.6.09,1.8,1.14,1.42a66.48,66.48,0,0,0,12.19-5.79,70.2,70.2,0,0,0-6.84,6.47c-1.08.55-2.18,1.07-3.34,1.53-.66.27-.39,1,.16,1.17-3.54,2.27-7.05,4.6-10.86,6.57-.83.42-.43,1.49.58,1.47a15.92,15.92,0,0,0,5-1,.82.82,0,0,0,.82.18,38.38,38.38,0,0,0,9.12-4.11c-.51.42-1,.87-1.49,1.3a123.78,123.78,0,0,1-10.75,7.13.75.75,0,0,0,.73,1.3,41.18,41.18,0,0,0,8.4-3.91,3.42,3.42,0,0,0,1.74,1.46l1.59-.72v1.6l-1.16.82c-.7.51.14,1.62,1.05,1.3l.1,0V306.61Z"/></g></g></svg>